<?xml version="1.0" encoding="utf-8"?>
<!-- Generator: Adobe Illustrator 23.1.1, SVG Export Plug-In . SVG Version: 6.00 Build 0)  -->
<svg version="1.1" id="Layer_1" xmlns="http://www.w3.org/2000/svg" xmlns:xlink="http://www.w3.org/1999/xlink" x="0px" y="0px"
	 width="260px" height="260px" viewBox="0 0 260 260" style="enable-background:new 0 0 260 260;" xml:space="preserve">
<style type="text/css">
	.st0{fill:#0D1E32;}
	.st1{fill:#FFFFFF;}
	.st2{fill:#E32202;}
</style>
<rect class="st0" width="260" height="260"/>
<path class="st1" d="M53.6,91.1c-15.7,0-22.1,16.5-22.1,38.7c0,19.5,5,38.7,22.4,38.7c13.9,0,23-14.5,24.5-28.1h2.1l-1.2,30.7h-1.8
	c-1.2-3.8-4.4-7.4-7.7-8c-5,5.3-11.2,8-18.9,8c-22.1,0-37.2-21.6-37.2-41.6c0-21,16.2-41.1,37.2-41.1c8,0,13.9,3,18,6.5
	c3.8-0.6,7.7-3.5,8.6-6.5h1.8l0.9,29.5h-2.1C77.3,102.1,65.7,91.1,53.6,91.1z"/>
<path class="st2" d="M178.1,150.8c-3,12.4-10.9,20.7-22.1,20.7c-5,0-9.7-1.5-15.1-5.3c-5,3-10.9,5.3-18.9,5.3c-18.3,0-31-10-31-23
	c0-8.9,6.2-15.9,19.2-20.1c-4.7-8-7.1-14.5-7.1-20.1c0-11.2,8.3-19.5,22.1-19.5c12.1,0,21.3,6.2,21.3,16.2
	c0,10.6-9.7,17.1-20.1,19.5c2.1,3.5,4.4,6.8,7.1,10.6c6.2,8.9,11.5,15.7,16.2,20.7c3.2-4.7,5.3-10,5.3-15.1c0-7.1-5-9.7-9.2-9.7
	h-0.6v-1.8h29.5v1.8h-0.6c-5.6,0-10.9,5.3-18.3,18c-1.5,2.4-3,5-5,8c5,5,9.5,7.7,13.9,7.7c6.8,0,10-6.2,12.1-13.9H178.1z M139.1,165
	c-6.2-4.7-13-12.4-21.6-24.5c-2.4-3.2-4.1-6.2-6.5-10c-2.7,2.7-4.7,7.1-4.7,14.8c0,15.1,9.5,23.6,20.4,23.6
	C131.4,168.5,135.5,167,139.1,165z M115.8,98.5c0,6.2,3.8,14.5,9.7,23.9c5.6-2.4,8.3-9.7,8.3-17.1c0-9.2-4.4-15.1-10.6-15.1
	C118.7,90.3,115.8,93.5,115.8,98.5z"/>
<path class="st1" d="M242.6,109.2c0,8.6-6.2,17.1-26.9,18l0,0c18.9,0.6,30.4,7.1,30.4,21c0,15.4-13.3,20.7-30.7,20.7h-36.3V167h9.7
	V92.6h-9.7v-2.1h33.1C230.8,90.6,242.6,96.8,242.6,109.2z M218.7,124.8c4.7-2.1,7.4-7.1,7.4-15.4c0-14.8-7.4-16.8-15.1-16.8h-5.9v34
	h3C211,126.6,215.1,126.3,218.7,124.8z M228.4,147.9c0-9.2-2.7-16.8-11.5-18.9c-2.1-0.6-3.8-0.6-7.4-0.6h-4.1v39h7.4
	C220.5,167.3,228.4,164.1,228.4,147.9z"/>
</svg>
