<?xml version="1.0" encoding="utf-8"?>
<!-- Generator: Adobe Illustrator 23.1.1, SVG Export Plug-In . SVG Version: 6.00 Build 0)  -->
<svg version="1.1" id="Layer_1" xmlns="http://www.w3.org/2000/svg" xmlns:xlink="http://www.w3.org/1999/xlink" x="0px" y="0px"
	 width="40px" height="49.2px" viewBox="0 0 40 49.2" style="enable-background:new 0 0 40 49.2;" xml:space="preserve">
<style type="text/css">
	.st0{fill:#F3271B;}
</style>
<path class="st0" d="M39.6,15.8C37.7,6.8,29.6,0,20,0C12.2,0,5.5,4.4,2.1,10.9c-0.5,1.1-0.9,2.2-1.3,3.5c-1.5,5.2-0.8,10.1,1.3,14.9
	c0.2,0.5,0.5,1.1,0.8,1.6c3.8,7.5,9.5,13.3,16.3,18.1c0.4,0.3,0.7,0.3,1,0c1.2-0.9,2.4-1.8,3.6-2.8c4.7-3.8,9-8,12.1-13.2
	c0.7-1.2,1.4-2.4,1.9-3.7c1.3-3,2.1-6.1,2.2-9.5C40,18.5,39.9,17.1,39.6,15.8z M20.1,11.2c4.8,0,8.5,3.9,8.5,8.6
	c0,4.6-4,8.5-8.6,8.5c-4.7-0.1-8.5-4-8.5-8.7C11.5,14.9,15.4,11.2,20.1,11.2z"/>
</svg>
