<svg version="1.1" id="email" xmlns="http://www.w3.org/2000/svg" xmlns:xlink="http://www.w3.org/1999/xlink" x="0px" y="0px"
	 width="47.9px" height="28.9px" viewBox="0 0 47.9 28.9" style="enable-background:new 0 0 47.9 28.9;" xml:space="preserve">
<style type="text/css">
	.st0-email{fill:url(#SVGID_1_);}
</style>
<linearGradient id="SVGID_1_" gradientUnits="userSpaceOnUse" x1="1.4704" y1="-2.5784" x2="47.418" y2="32.2244">
	<stop  offset="0" style="stop-color:#FAB273"/>
	<stop  offset="1" style="stop-color:#B67844"/>
</linearGradient>
<path class="st0-email" d="M2.6,0C16.9,0,31,0,45.3,0C38.1,6,31.1,11.9,24,17.9C16.9,11.9,9.8,6,2.6,0z M2.6,28.9c14.3,0,28.5,0,42.8,0
	c-4.8-4.3-9.5-8.5-14.2-12.7c-2,1.7-3.9,3.3-5.8,4.9c-1.1,0.9-1.7,0.9-2.8,0c-1.9-1.6-3.9-3.2-5.9-4.9C12,20.4,7.3,24.6,2.6,28.9z
	 M47.9,2.2c-4.8,4-9.4,7.9-14.1,11.8c4.7,4.2,9.4,8.4,14.1,12.7C47.9,18.4,47.9,10.4,47.9,2.2z M14.1,13.9C9.4,10,4.7,6.2,0,2.2
	c0,8.2,0,16.2,0,24.5C4.8,22.3,9.4,18.2,14.1,13.9z"/>
</svg>
