<?xml version="1.0" encoding="utf-8"?>
<!-- Generator: Adobe Illustrator 23.1.1, SVG Export Plug-In . SVG Version: 6.00 Build 0)  -->
<svg version="1.1" id="Layer_1" xmlns="http://www.w3.org/2000/svg" xmlns:xlink="http://www.w3.org/1999/xlink" x="0px" y="0px"
	 width="195.7px" height="17.1px" viewBox="0 0 195.7 17.1" style="enable-background:new 0 0 195.7 17.1;" xml:space="preserve">
<g>
	<path d="M49,4.8c0-0.7,0.4-1,1.1-1h0.9v9.7h-0.9c-0.7,0-1.1-0.3-1.1-1V4.8z"/>
	<path d="M55.9,11.5c0.3,0.2,0.5,0.3,0.9,0.3v0.9c0,0.4-0.2,0.7-0.6,0.8c-0.3,0.1-0.7,0.1-1-0.1c-0.5-0.3-0.9-0.6-1.2-1.1
		c-0.3-0.5-0.5-1.2-0.5-2v-9c0-0.7,0.4-1,1.1-1h0.9v10.1C55.5,10.8,55.6,11.2,55.9,11.5z"/>
	<path d="M65.9,4.6c1,0.8,1.4,1.8,1.4,2.9v6h-0.6c-0.5,0-0.8-0.3-1.1-0.8c-0.8,0.8-1.9,1.1-3,1.1c-1.3,0-2.3-0.4-3.2-1.1
		c-1-0.8-1.4-1.7-1.4-2.9V7.5c0-1.1,0.5-2.1,1.4-2.9c0.9-0.7,2-1.1,3.2-1.1C64,3.5,65,3.9,65.9,4.6z M62.7,5.4c-0.8,0-1.4,0.2-2,0.7
		C60.2,6.5,60,6.9,60,7.5v2.3c0,0.5,0.3,1,0.7,1.4c0.5,0.4,1.2,0.7,2,0.7c0.8,0,1.4-0.2,2-0.7c0.5-0.4,0.7-0.9,0.7-1.4V7.5
		c0-0.5-0.3-1-0.7-1.4C64.2,5.6,63.5,5.4,62.7,5.4z"/>
	<path d="M81.4,4.8c0-0.7,0.4-1,1.1-1h0.9v6c0,1.3-0.3,2.2-1,2.9c-0.7,0.7-1.7,1.1-2.9,1.1c-1.2,0-2.2-0.4-2.9-1.3
		c-0.7,0.8-1.7,1.3-2.9,1.3c-1.2,0-2.2-0.4-2.9-1.1c-0.7-0.7-1-1.7-1-2.9v-5c0-0.7,0.4-1,1.1-1h0.9v6c0,0.7,0.2,1.3,0.5,1.6
		c0.3,0.3,0.8,0.5,1.5,0.5c0.6,0,1.1-0.2,1.4-0.5c0.4-0.4,0.5-0.9,0.5-1.6v-5c0-0.7,0.4-1,1.1-1h0.9v6c0,0.7,0.2,1.2,0.5,1.6
		c0.3,0.3,0.8,0.5,1.4,0.5c0.7,0,1.1-0.2,1.5-0.5c0.3-0.3,0.5-0.9,0.5-1.6L81.4,4.8L81.4,4.8z"/>
	<path d="M94.1,3.8l-3.8,10.7c-0.1,0.3-0.2,0.5-0.3,0.7c-0.1,0.2-0.2,0.4-0.3,0.6c-0.3,0.4-0.6,0.7-1.1,1c-0.4,0.1-0.7,0.2-1,0.1
		c-0.4-0.1-0.6-0.4-0.6-0.8v-0.9c0.2,0,0.4-0.1,0.7-0.1c0.3-0.1,0.4-0.3,0.5-0.5l0.4-1c-0.6-0.1-1-0.5-1.2-0.9l-2.9-8
		c-0.1-0.3-0.1-0.4,0-0.6c0.1-0.2,0.3-0.3,0.5-0.3h1.2l2.9,8h0l2.6-7.3c0.2-0.5,0.5-0.7,1-0.7L94.1,3.8L94.1,3.8z"/>
	<path d="M102.1,4c0.5,0.3,0.9,0.6,1.2,1c0.4,0.5,0.5,1.1,0.5,1.7c0,0.5-0.1,1-0.3,1.4c-0.2,0.4-0.5,0.7-0.8,0.9
		c-0.3,0.3-0.7,0.4-1.2,0.5c-0.4,0.1-0.8,0.2-1.3,0.2h-2.3c-0.2,0-0.3,0-0.4,0c-0.1,0-0.3-0.1-0.3-0.1v0.8c0,0.5,0.2,0.8,0.7,1.1
		c0.4,0.2,0.8,0.4,1.3,0.4c0.4,0.1,0.9,0,1.4-0.1c0.3-0.1,0.7-0.2,0.9-0.4c0.1-0.1,0.1-0.1,0.3-0.2c0.3-0.3,0.7-0.4,1.1-0.2l0.9,0.5
		c-0.2,0.4-0.4,0.8-0.7,1.1c-0.4,0.4-1,0.8-1.7,1c-0.6,0.2-1.2,0.3-1.9,0.3c-0.6,0-1.1-0.1-1.5-0.1c-0.5-0.1-1-0.3-1.4-0.6
		c-0.5-0.3-0.8-0.7-1.1-1.3c-0.2-0.5-0.3-1.1-0.3-1.7V6.9c0-0.5,0.1-1,0.3-1.4c0.3-0.7,0.9-1.2,1.6-1.6c0.7-0.3,1.4-0.5,2.3-0.5
		C100.4,3.5,101.3,3.6,102.1,4z M101.4,7.6c0.3-0.2,0.5-0.4,0.5-0.8c0-0.4-0.1-0.7-0.4-0.9c-0.4-0.3-0.9-0.4-1.4-0.5
		c-0.5,0-1.1,0-1.5,0.1c-0.4,0.1-0.7,0.3-1,0.5c-0.3,0.3-0.4,0.5-0.4,0.9v0.9h3.2C100.8,7.8,101.1,7.7,101.4,7.6z"/>
	<path d="M105.7,7.2c0-1.1,0.4-2,1.1-2.6c0.6-0.5,1.3-0.8,2.2-0.8h1.3v0.9c0,0.7-0.3,1.1-1,1.1H109c-0.3,0-0.7,0.1-0.9,0.3
		c-0.3,0.3-0.5,0.7-0.5,1.1v6.3h-0.9c-0.7,0-1.1-0.3-1.1-1L105.7,7.2L105.7,7.2z"/>
	<path d="M122.9,5.9c-0.3-0.3-0.8-0.5-1.5-0.5c-0.6,0-1.1,0.2-1.4,0.5c-0.4,0.4-0.5,0.9-0.5,1.6v6h-0.9c-0.7,0-1.1-0.3-1.1-1v-5
		c0-0.7-0.2-1.2-0.5-1.6c-0.3-0.4-0.8-0.5-1.4-0.5c-0.7,0-1.2,0.2-1.5,0.5c-0.3,0.4-0.5,0.9-0.5,1.6v6h-0.9c-0.7,0-1.1-0.3-1.1-1v-5
		c0-1.2,0.3-2.2,1-2.9c0.7-0.7,1.7-1.1,2.9-1.1c1,0,1.9,0.3,2.5,0.9c0.1,0.1,0.2,0.2,0.4,0.4c0.1-0.1,0.3-0.3,0.4-0.4
		c0.7-0.6,1.5-0.9,2.6-0.9c1.2,0,2.2,0.4,2.9,1.1c0.7,0.7,1,1.7,1,2.9v6h-0.9c-0.7,0-1.1-0.3-1.1-1v-5
		C123.4,6.8,123.3,6.2,122.9,5.9z"/>
	<path d="M135.2,4.6c1,0.8,1.4,1.8,1.4,2.9v6H136c-0.5,0-0.8-0.3-1.1-0.8c-0.8,0.8-1.9,1.1-3,1.1c-1.3,0-2.3-0.4-3.2-1.1
		c-1-0.8-1.4-1.7-1.4-2.9V7.5c0-1.1,0.5-2.1,1.4-2.9c0.9-0.7,2-1.1,3.2-1.1C133.2,3.5,134.2,3.9,135.2,4.6z M132,5.4
		c-0.8,0-1.4,0.2-2,0.7c-0.5,0.4-0.7,0.9-0.7,1.4v2.3c0,0.5,0.3,1,0.7,1.4c0.5,0.4,1.2,0.7,2,0.7s1.4-0.2,2-0.7
		c0.5-0.4,0.7-0.9,0.7-1.4V7.5c0-0.5-0.3-1-0.7-1.4C133.4,5.6,132.7,5.4,132,5.4z"/>
	<path d="M138.9,7.2c0-1.1,0.4-2,1.1-2.6c0.6-0.5,1.3-0.8,2.2-0.8h1.3v0.9c0,0.7-0.3,1.1-1,1.1h-0.3c-0.3,0-0.7,0.1-0.9,0.3
		c-0.3,0.3-0.5,0.7-0.5,1.1v6.3h-0.9c-0.7,0-1.1-0.3-1.1-1V7.2L138.9,7.2z"/>
	<path d="M145.1,1.3c0-0.7,0.4-1,1.1-1h0.9v7.5h0.7c0.4,0,0.7,0,1-0.4l1.8-3c0.3-0.5,0.7-0.7,1.2-0.7h1.5l-2.3,3.8
		c-0.1,0.2-0.3,0.4-0.4,0.5c0.6,0.3,1.1,0.8,1.5,1.6l1.7,3.8h-1.3c-0.6,0-1-0.2-1.1-0.6l-1.1-2.4c-0.2-0.5-0.6-0.7-1.1-0.7H147v3.7
		h-0.9c-0.7,0-1.1-0.3-1.1-1L145.1,1.3L145.1,1.3z"/>
	<path d="M161.6,4c0.5,0.3,0.9,0.6,1.2,1c0.4,0.5,0.5,1.1,0.5,1.7c0,0.5-0.1,1-0.3,1.4c-0.2,0.4-0.5,0.7-0.8,0.9s-0.7,0.4-1.2,0.5
		c-0.4,0.1-0.8,0.2-1.3,0.2h-2.3c-0.2,0-0.3,0-0.4,0c-0.1,0-0.3-0.1-0.3-0.1v0.8c0,0.5,0.2,0.8,0.7,1.1c0.4,0.2,0.8,0.4,1.3,0.4
		c0.4,0.1,0.9,0,1.4-0.1c0.3-0.1,0.7-0.2,0.9-0.4c0.1-0.1,0.1-0.1,0.3-0.2c0.3-0.3,0.7-0.4,1.1-0.2l0.9,0.5
		c-0.2,0.4-0.4,0.8-0.7,1.1c-0.4,0.4-1,0.8-1.7,1c-0.6,0.2-1.2,0.3-1.9,0.3c-0.6,0-1.1-0.1-1.5-0.1c-0.5-0.1-1-0.3-1.4-0.6
		c-0.5-0.3-0.8-0.7-1.1-1.3c-0.2-0.5-0.3-1.1-0.3-1.7V6.9c0-0.5,0.1-1,0.3-1.4c0.3-0.7,0.9-1.2,1.6-1.6c0.7-0.3,1.4-0.5,2.3-0.5
		C159.9,3.5,160.8,3.6,161.6,4z M160.9,7.6c0.3-0.2,0.5-0.4,0.5-0.8c0-0.4-0.1-0.7-0.4-0.9c-0.4-0.3-0.9-0.4-1.4-0.5
		c-0.5,0-1.1,0-1.5,0.1c-0.4,0.1-0.7,0.3-1,0.5c-0.3,0.3-0.4,0.5-0.4,0.9v0.9h3.2C160.3,7.8,160.6,7.7,160.9,7.6z"/>
	<path d="M169.5,3.8v0.9c0,0.7-0.3,1.1-1,1.1h-1.3v4.7c0,0.5,0.1,0.9,0.5,1.1c0.3,0.2,0.5,0.3,0.9,0.3v0.9c0,0.4-0.2,0.7-0.6,0.8
		c-0.3,0.1-0.7,0.1-1-0.1c-0.5-0.3-0.9-0.6-1.2-1.1c-0.3-0.5-0.5-1.2-0.5-2v-9c0-0.7,0.3-1,1.1-1h0.9v3.5L169.5,3.8L169.5,3.8z"/>
	<path d="M176.9,4.5c0.9-0.7,1.9-1.1,3.1-1.1s2.2,0.4,3.1,1.1c0.9,0.8,1.4,1.7,1.4,2.8v6.1h-0.9c-0.7,0-1.1-0.3-1.1-1V7.3
		c0-0.5-0.2-0.9-0.7-1.3c-0.5-0.4-1.1-0.6-1.8-0.6c-0.7,0-1.3,0.2-1.8,0.6c-0.4,0.4-0.7,0.8-0.7,1.3v6.1h-0.9c-0.7,0-1.1-0.3-1.1-1
		V7.3C175.6,6.2,176,5.3,176.9,4.5z"/>
	<path d="M194.3,4.6c0.9,0.8,1.4,1.8,1.4,2.9v5.9c0,0.6-0.1,1.1-0.4,1.6c-0.5,1-1.4,1.6-2.4,1.9c-0.5,0.1-1.1,0.2-1.7,0.2
		c-0.5,0-1-0.1-1.5-0.1c-0.4-0.1-0.7-0.3-0.9-0.5c-0.1-0.2-0.1-0.5,0-0.8l0.2-0.8c0.4,0.2,1,0.3,1.7,0.3c0.6,0,1.2-0.1,1.7-0.2
		c0.9-0.3,1.4-0.8,1.4-1.7V13c-0.8,0.5-1.7,0.8-2.7,0.8c-1.2,0-2.3-0.4-3.2-1.1c-0.9-0.8-1.4-1.7-1.4-2.9V7.5c0-1.1,0.5-2.1,1.4-2.9
		c0.9-0.7,2-1.1,3.2-1.1C192.3,3.5,193.3,3.9,194.3,4.6z M191,5.4c-0.8,0-1.4,0.2-2,0.7c-0.5,0.4-0.7,0.9-0.7,1.4v2.3
		c0,0.5,0.3,1,0.7,1.4c0.5,0.4,1.2,0.7,2,0.7c0.8,0,1.4-0.2,2-0.7c0.5-0.4,0.7-0.9,0.7-1.4V7.5c0-0.5-0.3-1-0.7-1.4
		C192.5,5.6,191.8,5.4,191,5.4z"/>
	<path d="M50.9,0.9c0,0.5-0.4,0.9-0.9,0.9c-0.5,0-0.9-0.4-0.9-0.9S49.4,0,49.9,0C50.5,0,50.9,0.4,50.9,0.9z"/>
	<path d="M171.2,4.9c0-0.7,0.4-1,1.1-1h0.9v9.7h-0.9c-0.7,0-1.1-0.3-1.1-1V4.9z"/>
	<path d="M173,1c0,0.5-0.4,0.9-0.9,0.9c-0.5,0-0.9-0.4-0.9-0.9s0.4-0.9,0.9-0.9C172.6,0.1,173,0.5,173,1z"/>
</g>
<g>
	<path d="M1.5,11.9C1,11.7,0.6,11.4,0.4,11S0,10.2,0,9.7V9.4c0,0,0-0.1,0-0.1c0,0,0.1,0,0.1,0h1.4c0,0,0.1,0,0.1,0c0,0,0,0.1,0,0.1
		v0.2c0,0.3,0.1,0.6,0.4,0.8c0.3,0.2,0.7,0.3,1.2,0.3c0.4,0,0.7-0.1,0.9-0.3c0.2-0.2,0.3-0.4,0.3-0.7c0-0.2-0.1-0.4-0.2-0.5
		C4.2,9.2,4,9.1,3.8,9c-0.2-0.1-0.6-0.2-1-0.4C2.2,8.4,1.8,8.2,1.4,8C1.1,7.8,0.7,7.6,0.5,7.2C0.2,6.9,0.1,6.5,0.1,6
		c0-0.5,0.1-0.9,0.4-1.3c0.2-0.4,0.6-0.6,1-0.8C1.9,3.8,2.5,3.7,3,3.7c0.6,0,1.1,0.1,1.6,0.3c0.5,0.2,0.8,0.5,1.1,0.9
		C6,5.3,6.1,5.7,6.1,6.2v0.2c0,0,0,0.1,0,0.1c0,0-0.1,0-0.1,0H4.6c0,0-0.1,0-0.1,0c0,0,0-0.1,0-0.1V6.3c0-0.3-0.1-0.6-0.4-0.9
		C3.8,5.2,3.4,5.1,3,5.1c-0.4,0-0.7,0.1-0.9,0.2C1.9,5.5,1.8,5.7,1.8,6c0,0.2,0.1,0.4,0.2,0.5c0.1,0.1,0.3,0.3,0.5,0.4
		C2.7,7,3.1,7.1,3.6,7.3c0.6,0.2,1,0.4,1.3,0.5C5.3,8,5.6,8.2,5.8,8.5s0.4,0.7,0.4,1.2c0,0.7-0.3,1.3-0.8,1.8
		c-0.6,0.4-1.3,0.7-2.2,0.7C2.5,12.2,2,12.1,1.5,11.9z"/>
	<path d="M8.3,12.1C8.2,12,8.2,12,8.3,12.1l0-8.2c0,0,0-0.1,0-0.1c0,0,0.1,0,0.1,0h1.4c0,0,0.1,0,0.1,0c0,0,0,0.1,0,0.1V12
		c0,0,0,0.1,0,0.1c0,0-0.1,0-0.1,0L8.3,12.1C8.3,12.1,8.3,12.1,8.3,12.1z"/>
	<path d="M17.8,3.8C17.8,3.8,17.8,3.9,17.8,3.8l0,1.3c0,0,0,0.1,0,0.1c0,0-0.1,0-0.1,0h-2.1c0,0-0.1,0-0.1,0.1v6.7c0,0,0,0.1,0,0.1
		c0,0-0.1,0-0.1,0H14c0,0-0.1,0-0.1,0c0,0,0-0.1,0-0.1V5.3c0,0,0-0.1-0.1-0.1h-2.1c0,0-0.1,0-0.1,0c0,0,0-0.1,0-0.1V3.9
		c0,0,0-0.1,0-0.1c0,0,0.1,0,0.1,0L17.8,3.8C17.7,3.8,17.8,3.8,17.8,3.8z"/>
	<path d="M25.3,5.2C25.2,5.2,25.2,5.2,25.3,5.2l-4,0c0,0-0.1,0-0.1,0.1v1.8c0,0,0,0.1,0.1,0.1h2.6c0,0,0.1,0,0.1,0c0,0,0,0.1,0,0.1
		v1.2c0,0,0,0.1,0,0.1c0,0-0.1,0-0.1,0h-2.6c0,0-0.1,0-0.1,0.1v1.9c0,0,0,0.1,0.1,0.1h3.9c0,0,0.1,0,0.1,0c0,0,0,0.1,0,0.1v1.2
		c0,0,0,0.1,0,0.1c0,0-0.1,0-0.1,0h-5.5c0,0-0.1,0-0.1,0c0,0,0-0.1,0-0.1v-8c0,0,0-0.1,0-0.1c0,0,0.1,0,0.1,0h5.5c0,0,0.1,0,0.1,0
		c0,0,0,0.1,0,0.1L25.3,5.2C25.3,5.1,25.3,5.1,25.3,5.2z"/>
	<path d="M35,7.8c0.8,0.4,1.1,1,1.1,1.9c0,0.8-0.3,1.4-0.8,1.7c-0.5,0.4-1.2,0.6-2.1,0.6h-3.1c0,0-0.1,0-0.1,0c0,0,0-0.1,0-0.1V3.9
		c0,0,0-0.1,0-0.1c0,0,0.1,0,0.1,0h3c1.9,0,2.8,0.8,2.8,2.3C36,6.8,35.7,7.4,35,7.8C34.9,7.8,34.9,7.8,35,7.8z M31.7,5.3v1.9
		c0,0,0,0.1,0.1,0.1h1.4c0.4,0,0.7-0.1,0.9-0.3c0.2-0.2,0.3-0.4,0.3-0.7c0-0.3-0.1-0.6-0.3-0.7c-0.2-0.2-0.5-0.3-0.9-0.3L31.7,5.3
		C31.7,5.2,31.7,5.2,31.7,5.3z M34.1,10.4c0.2-0.2,0.3-0.4,0.3-0.8c0-0.3-0.1-0.6-0.3-0.8c-0.2-0.2-0.5-0.3-0.9-0.3h-1.5
		c0,0-0.1,0-0.1,0.1v2c0,0,0,0.1,0.1,0.1h1.5C33.6,10.6,33.9,10.6,34.1,10.4z"/>
	<path d="M39.7,12C39.7,12,39.7,12,39.7,12l0-3.1c0,0,0-0.1,0-0.1l-2.5-4.9c0,0,0-0.1,0-0.1c0-0.1,0-0.1,0.1-0.1h1.5
		c0.1,0,0.1,0,0.2,0.1L40.4,7c0,0,0,0,0.1,0L42,3.9c0-0.1,0.1-0.1,0.2-0.1h1.5c0.1,0,0.1,0,0.1,0c0,0,0,0.1,0,0.1l-2.5,4.9
		c0,0,0,0,0,0.1v3c0,0,0,0.1,0,0.1c0,0-0.1,0-0.1,0h-1.4C39.8,12.1,39.7,12.1,39.7,12z"/>
</g>
</svg>
