<svg version="1.1" id="logo" xmlns="http://www.w3.org/2000/svg" xmlns:xlink="http://www.w3.org/1999/xlink" x="0px" y="0px"
	 width="417px" height="28px" viewBox="0 0 417 28" style="enable-background:new 0 0 417 28;" xml:space="preserve">
<style type="text/css">
	
</style>
<g>
	<path class="st0-logo" d="M13.5,0.9C8.2,0.9,6,6.5,6,14c0,6.6,1.7,13.1,7.6,13.1c4.7,0,7.8-4.9,8.3-9.5l0.7,0L22.2,28h-0.6
		c-0.4-1.3-1.5-2.5-2.6-2.7c-1.7,1.8-3.8,2.7-6.4,2.7C5.1,28,0,20.7,0,13.9C0,6.8,5.5,0,12.6,0c2.7,0,4.7,1,6.1,2.2
		C20,2,21.3,1,21.6,0h0.6l0.3,10l-0.7,0C21.5,4.6,17.6,0.9,13.5,0.9z"/>
	<path class="st0-logo" d="M52.1,26.7v0.6H40.7v-0.6h2.8l-3.3-9h-7.7c-0.7,2.2-1,3.9-1,5.2c0,3,1.6,3.8,3.6,3.8h0.2v0.6h-9.9v-0.6h0
		c2.1,0,3.6-1.3,6.1-8.2L38,0.2h1.7l9.9,26.4H52.1z M40,17.1L36.3,7l-3.2,9.1c-0.1,0.3-0.2,0.7-0.3,1H40z"/>
	<path class="st0-logo" d="M75.7,17.6l-0.5,9.7H53.6v-0.6h3.3V1.4h-3.3V0.7h12.2v0.6h-3.3v25.3h3.6c6.5,0,8.7-3.9,8.9-7.7l0.1-1.4
		L75.7,17.6z"/>
	<path class="st0-logo" d="M100.4,17.6l-0.5,9.7H78.2v-0.6h3.3V1.4h-3.3V0.7h12.2v0.6h-3.3v25.3h3.6c6.5,0,8.7-3.9,8.9-7.7l0.1-1.4
		L100.4,17.6z"/>
	<path class="st0-logo" d="M129,26.7v0.6h-11.4v-0.6h2.8l-3.3-9h-7.7c-0.7,2.2-1,3.9-1,5.2c0,3,1.6,3.8,3.6,3.8h0.2v0.6h-9.9v-0.6h0
		c2.1,0,3.6-1.3,6.1-8.2l6.4-18.3h1.7l9.9,26.4H129z M116.8,17.1L113.1,7l-3.2,9.1c-0.1,0.3-0.2,0.7-0.3,1H116.8z"/>
	<path class="st0-logo" d="M155.3,1.4v25.3h3.3v0.6h-12.2v-0.6h3.3V14.2h-10.3v12.4h3.3v0.6h-12.2v-0.6h3.3V1.4h-3.3V0.7h12.2v0.6h-3.3
		v12.2h10.3V1.4h-3.3V0.7h12.2v0.6H155.3z"/>
	<path class="st0-logo" d="M186.7,26.7v0.6h-11.4v-0.6h2.8l-3.3-9h-7.7c-0.7,2.2-1,3.9-1,5.2c0,3,1.6,3.8,3.6,3.8h0.2v0.6H160v-0.6h0
		c2.1,0,3.6-1.3,6.1-8.2l6.4-18.3h1.7l9.9,26.4H186.7z M174.6,17.1L170.9,7l-3.2,9.1c-0.1,0.3-0.2,0.7-0.3,1H174.6z"/>
	<path class="st0-logo" d="M217.1,0.7v0.6h-0.2c-2.8,0-4.4,2.3-4.4,9.5v16.4h-2.2L193.2,3.5v13.7c0,7.1,1.7,9.5,4.6,9.5h0.2v0.6h-10.2
		v-0.6h0.2c2.8,0,4.4-2.3,4.4-9.5V2.5l-0.8-1.2h-3V0.7h9.5l13.6,19.1v-8.9c0-7.1-1.7-9.5-4.6-9.5H207V0.7H217.1z"/>
	<path class="st1-logo" d="M260.3,21.1c-1,4.2-3.7,7-7.5,7c-1.7,0-3.3-0.5-5.1-1.8c-1.7,1-3.7,1.8-6.4,1.8c-6.2,0-10.5-3.4-10.5-7.8
		c0-3,2.1-5.4,6.5-6.8c-1.6-2.7-2.4-4.9-2.4-6.8c0-3.8,2.8-6.6,7.5-6.6c4.1,0,7.2,2.1,7.2,5.5c0,3.6-3.3,5.8-6.8,6.6
		c0.7,1.2,1.5,2.3,2.4,3.6c2.1,3,3.9,5.3,5.5,7c1.1-1.6,1.8-3.4,1.8-5.1c0-2.4-1.7-3.3-3.1-3.3h-0.2v-0.6h10v0.6h-0.2
		c-1.9,0-3.7,1.8-6.2,6.1c-0.5,0.8-1,1.7-1.7,2.7c1.7,1.7,3.2,2.6,4.7,2.6c2.3,0,3.4-2.1,4.1-4.7L260.3,21.1z M247.1,25.9
		c-2.1-1.6-4.4-4.2-7.3-8.3c-0.8-1.1-1.4-2.1-2.2-3.4c-0.9,0.9-1.6,2.4-1.6,5c0,5.1,3.2,8,6.9,8C244.5,27.1,245.9,26.6,247.1,25.9z
		 M239.2,3.4c0,2.1,1.3,4.9,3.3,8.1c1.9-0.8,2.8-3.3,2.8-5.8c0-3.1-1.5-5.1-3.6-5.1C240.2,0.6,239.2,1.7,239.2,3.4z"/>
	<path class="st0-logo" d="M294.9,7c0,2.9-2.1,5.8-9.1,6.1c0,0,0,0,0,0c6.4,0.2,10.3,2.4,10.3,7.1c0,5.2-4.5,7-10.4,7h-12.3v-0.6h3.3V1.4
		h-3.3V0.7h11.2C290.9,0.7,294.9,2.8,294.9,7z M286.8,12.3c1.6-0.7,2.5-2.4,2.5-5.2c0-5-2.5-5.7-5.1-5.7h-2v11.5h1
		C284.2,12.9,285.6,12.8,286.8,12.3z M290.1,20.1c0-3.1-0.9-5.7-3.9-6.4c-0.7-0.2-1.3-0.2-2.5-0.2h-1.4v13.2h2.5
		C287.4,26.7,290.1,25.6,290.1,20.1z"/>
	<path class="st0-logo" d="M320.2,17.6l-0.5,9.7h-21.6v-0.6h3.3V1.4h-3.3V0.7h12.2v0.6H307v25.3h3.6c6.5,0,8.7-3.9,8.9-7.7l0.1-1.4
		L320.2,17.6z"/>
	<path class="st0-logo" d="M348.8,26.7v0.6h-11.4v-0.6h2.8l-3.3-9h-7.7c-0.7,2.2-1,3.9-1,5.2c0,3,1.6,3.8,3.6,3.8h0.2v0.6h-9.9v-0.6h0
		c2.1,0,3.6-1.3,6.1-8.2l6.4-18.3h1.7l9.9,26.4H348.8z M336.7,17.1L333,7l-3.2,9.1c-0.1,0.3-0.2,0.7-0.3,1H336.7z"/>
	<path class="st0-logo" d="M359.2,26.7h3.3v0.6h-12.2v-0.6h3.3V1.4h-3.3V0.7h12.2v0.6h-3.3V26.7z"/>
	<path class="st0-logo" d="M393.5,0.7v0.6h-0.2c-2.8,0-4.4,2.3-4.4,9.5v16.4h-2.2L369.5,3.5v13.7c0,7.1,1.7,9.5,4.6,9.5h0.2v0.6h-10.2
		v-0.6h0.2c2.8,0,4.4-2.3,4.4-9.5V2.5L368,1.4h-3V0.7h9.5l13.6,19.1v-8.9c0-7.1-1.7-9.5-4.6-9.5h-0.2V0.7H393.5z"/>
	<path class="st0-logo" d="M417,17.6l-0.5,9.7h-21.4v-0.6h3.3V1.4h-3.3V0.7h21.2l0.3,9.3l-0.6,0L416,8.7c-0.2-3.4-1.9-7.3-8.6-7.3h-3.3
		v12.2h1.2c0.5,0,1.4,0,2-0.2c1.8-0.5,2.9-2.5,3-5h0.6v11.1h-0.6c-0.2-2.9-1.2-4.7-3-5.1c-0.6-0.1-1.5-0.1-2-0.1h-1.2v12.4h3.3
		c6.6,0,8.6-3.9,8.8-7.7l0.1-1.4L417,17.6z"/>
</g>
</svg>
