<svg version="1.1" class="sm" xmlns="http://www.w3.org/2000/svg" xmlns:xlink="http://www.w3.org/1999/xlink" x="0px" y="0px"
	 width="30.2px" height="36.2px" viewBox="0 0 30.2 36.2" style="enable-background:new 0 0 30.2 36.2;" xml:space="preserve">
<style type="text/css">

</style>
<path id="YouTube_2_" class="st0-sm" d="M25.5,26.5h-2l0-1.2c0-0.5,0.4-0.9,0.9-0.9h0.1c0.5,0,0.9,0.4,0.9,0.9L25.5,26.5z M18.1,24
	c-0.5,0-0.9,0.3-0.9,0.8v5.6c0,0.4,0.4,0.8,0.9,0.8c0.5,0,0.9-0.3,0.9-0.8v-5.6C19,24.4,18.6,24,18.1,24z M30.2,20.9v10.7
	c0,2.6-2.2,4.7-4.9,4.7H4.9c-2.7,0-4.9-2.1-4.9-4.7V20.9c0-2.6,2.2-4.7,4.9-4.7h20.3C28,16.2,30.2,18.3,30.2,20.9z M6.3,32.7l0-11.3
	l2.5,0v-1.7l-6.7,0v1.6l2.1,0v11.3H6.3z M13.8,23.2h-2.1v6c0,0.9,0.1,1.3,0,1.5c-0.2,0.5-0.9,1-1.2,0.1c-0.1-0.2,0-0.6,0-1.5l0-6.1
	H8.4l0,6c0,0.9,0,1.6,0,1.9c0.1,0.5,0,1.2,0.5,1.5c0.9,0.7,2.8-0.1,3.2-1.1l0,1.2l1.7,0V23.2z M20.6,30l0-5c0-1.9-1.4-3-3.4-1.5
	l0-3.7l-2.1,0l0,12.8l1.7,0l0.2-0.8C19.2,33.8,20.6,32.5,20.6,30z M27.1,29.4l-1.6,0c0,0.1,0,0.1,0,0.2v0.9c0,0.5-0.4,0.9-0.9,0.9
	h-0.3c-0.5,0-0.9-0.4-0.9-0.9v-0.1v-1v-1.2h3.6v-1.4c0-1,0-2-0.1-2.5c-0.3-1.8-2.8-2.1-4-1.2c-0.4,0.3-0.7,0.7-0.9,1.2
	c-0.2,0.5-0.3,1.2-0.3,2.1v3C21.8,34.3,27.8,33.6,27.1,29.4z M19.1,13.2c0.1,0.3,0.3,0.5,0.5,0.6c0.2,0.2,0.5,0.2,0.9,0.2
	c0.3,0,0.6-0.1,0.8-0.3c0.2-0.2,0.4-0.4,0.6-0.8l0,0.8h2.3v-10h-1.8v7.7c0,0.4-0.3,0.8-0.8,0.8c-0.4,0-0.8-0.3-0.8-0.8V3.9h-1.9v6.7
	c0,0.9,0,1.4,0,1.7C18.9,12.6,18.9,12.9,19.1,13.2z M12,7.6c0-1,0.1-1.7,0.2-2.2c0.2-0.5,0.4-1,0.9-1.3c0.4-0.3,0.9-0.5,1.6-0.5
	c0.5,0,1,0.1,1.4,0.3c0.4,0.2,0.7,0.5,0.9,0.8c0.2,0.3,0.4,0.7,0.4,1c0.1,0.4,0.1,0.9,0.1,1.6v2.5c0,0.9,0,1.6-0.1,2
	c-0.1,0.4-0.2,0.8-0.5,1.2c-0.2,0.4-0.5,0.7-0.9,0.8c-0.4,0.2-0.8,0.3-1.3,0.3c-0.5,0-1-0.1-1.4-0.2c-0.4-0.2-0.7-0.4-0.9-0.7
	c-0.2-0.3-0.4-0.7-0.4-1.1c-0.1-0.4-0.1-1.1-0.1-2V7.6z M13.8,11.5c0,0.6,0.4,1,0.9,1c0.5,0,0.9-0.5,0.9-1V6.2c0-0.6-0.4-1-0.9-1
	c-0.5,0-0.9,0.5-0.9,1V11.5z M7.3,14.2h2.2l0-7.6L12.1,0H9.7L8.3,4.9L6.9,0H4.5l2.8,6.6L7.3,14.2z"/>
</svg>
