<svg version="1.1" class="sm" xmlns="http://www.w3.org/2000/svg" xmlns:xlink="http://www.w3.org/1999/xlink" x="0px" y="0px"
	 width="26.9px" height="27.3px" viewBox="0 0 26.9 27.3" style="enable-background:new 0 0 26.9 27.3;" xml:space="preserve">
<style type="text/css">
	
</style>
<g>
	<g>
		<path class="st0-sm" d="M26.8,10.9c-2.7,0-13.1,0-13.1,0v5.4c0,0,5.2,0,7.4,0c-1.2,3.5-3,5.4-7.4,5.4c-4.5,0-8-3.6-8-8.1
			c0-4.5,3.5-8.1,8-8.1c2.4,0,3.9,0.8,5.3,2c1.1-1.1,1-1.3,3.9-4C20.4,1.3,17.2,0,13.7,0C6.1,0,0,6.1,0,13.7
			c0,7.5,6.1,13.7,13.7,13.7C24.9,27.3,27.7,17.5,26.8,10.9z"/>
	</g>
</g>
</svg>
