<svg version="1.1" class="sm" xmlns="http://www.w3.org/2000/svg" xmlns:xlink="http://www.w3.org/1999/xlink" x="0px" y="0px"
	 width="33px" height="26.9px" viewBox="0 0 33 26.9" style="enable-background:new 0 0 33 26.9;" xml:space="preserve">
<style type="text/css">
	
</style>
<path class="st0-sm" d="M33,3.2c-1.2,0.5-2.5,0.9-3.9,1.1c1.4-0.8,2.5-2.2,3-3.8c-1.3,0.8-2.8,1.3-4.3,1.6c-1.2-1.3-3-2.1-4.9-2.1
	c-3.7,0-6.8,3-6.8,6.8c0,0.5,0.1,1,0.2,1.5c-5.6-0.3-10.6-3-14-7.1c-0.6,1-0.9,2.2-0.9,3.4c0,2.4,1.2,4.4,3,5.6
	c-1.1,0-2.2-0.3-3.1-0.8c0,0,0,0.1,0,0.1c0,3.3,2.3,6,5.4,6.6c-0.6,0.2-1.2,0.2-1.8,0.2c-0.4,0-0.9,0-1.3-0.1C4.6,19,7.1,20.9,10,21
	c-2.3,1.8-5.2,2.9-8.4,2.9c-0.5,0-1.1,0-1.6-0.1c3,1.9,6.6,3,10.4,3c12.5,0,19.3-10.3,19.3-19.3c0-0.3,0-0.6,0-0.9
	C31,5.7,32.1,4.5,33,3.2z"/>
</svg>
