<svg version="1.1" class="sm" xmlns="http://www.w3.org/2000/svg" xmlns:xlink="http://www.w3.org/1999/xlink" x="0px" y="0px"
	 width="14.4px" height="30.9px" viewBox="0 0 14.4 30.9" style="enable-background:new 0 0 14.4 30.9;" xml:space="preserve">
<style type="text/css">
	
</style>
<path id="Facebook_3_" class="st0-sm" d="M3.1,6c0,0.8,0,4.3,0,4.3H0v5.2h3.1v15.5h6.4V15.5h4.3c0,0,0.4-2.5,0.6-5.2
	c-0.6,0-4.9,0-4.9,0s0-3,0-3.6c0-0.5,0.7-1.2,1.4-1.2c0.7,0,2.1,0,3.5,0c0-0.7,0-3.2,0-5.4c-1.8,0-3.8,0-4.7,0C3,0,3.1,5.2,3.1,6z"
	/>
</svg>
