<svg version="1.1" class="sm" xmlns="http://www.w3.org/2000/svg" xmlns:xlink="http://www.w3.org/1999/xlink" x="0px" y="0px"
	 width="33.9px" height="32.3px" viewBox="0 0 33.9 32.3" style="enable-background:new 0 0 33.9 32.3;" xml:space="preserve">
<style type="text/css">
	
</style>
<path id="LinkedIn_1_" class="st0-sm" d="M33.9,19.8v12.5h-7.3V20.7c0-2.9-1-4.9-3.7-4.9c-2,0-3.2,1.3-3.7,2.7C19,18.9,19,19.5,19,20.2
	v12.2h-7.3c0,0,0.1-19.8,0-21.8H19v3.1c0,0,0,0,0,0.1h0v-0.1c1-1.5,2.7-3.6,6.5-3.6C30.3,10,33.9,13.1,33.9,19.8z M4.1,0
	C1.6,0,0,1.6,0,3.8c0,2.1,1.6,3.8,4,3.8h0c2.5,0,4.1-1.7,4.1-3.8C8.1,1.6,6.6,0,4.1,0z M0.4,32.3h7.3V10.5H0.4V32.3z"/>
</svg>
